<?xml version="1.0" encoding="UTF-8" standalone="no"?>
<!DOCTYPE svg PUBLIC "-//W3C//DTD SVG 1.1//EN" "http://www.w3.org/Graphics/SVG/1.1/DTD/svg11.dtd">
<svg width="100%" height="100%" viewBox="0 0 36 36" version="1.1" xmlns="http://www.w3.org/2000/svg" xmlns:xlink="http://www.w3.org/1999/xlink" xml:space="preserve" xmlns:serif="http://www.serif.com/" style="fill-rule:evenodd;clip-rule:evenodd;stroke-linejoin:round;stroke-miterlimit:2;">
    <g>
        <path d="M4.452,7.121L15.682,7.177C16.482,7.181 17.247,7.486 17.827,8.033C18.409,8.58 19.175,8.889 19.977,8.893L21.48,8.9L21.413,21.459L15.785,26.707C15.346,27.115 14.96,27.569 14.629,28.057C13.773,29.319 13.293,30.813 13.268,32.357C13.261,32.737 13.142,33.09 12.943,33.384C12.602,33.886 12.028,34.216 11.381,34.212C10.509,34.208 9.765,33.595 9.592,32.739L9.284,31.213C8.932,29.467 8.974,27.659 9.407,25.922L9.83,24.225L2.365,24.18C1.172,24.174 0.225,23.181 0.278,21.976C0.328,20.814 1.322,19.907 2.479,19.913C2.493,19.913 2.501,19.903 2.503,19.892C2.504,19.881 2.498,19.869 2.484,19.866C2.228,19.808 1.989,19.702 1.779,19.56C1.443,19.331 1.176,19.007 1.017,18.628C0.908,18.366 0.85,18.078 0.855,17.774C0.865,17.189 1.108,16.66 1.494,16.277C2.103,15.672 2.846,15.653 2.99,15.651C3.014,15.651 3.035,15.631 3.035,15.605C3.036,15.605 3.035,15.604 3.035,15.603C3.034,15.58 3.015,15.56 2.992,15.56C2.829,15.499 2.675,15.419 2.533,15.323C2.185,15.087 1.906,14.752 1.741,14.363C1.629,14.1 1.569,13.81 1.574,13.509C1.593,12.331 2.56,11.381 3.733,11.387C3.762,11.387 3.792,11.386 3.82,11.387C3.838,11.386 3.851,11.373 3.853,11.359C3.853,11.355 3.852,11.351 3.85,11.348C3.846,11.335 3.833,11.324 3.815,11.325C3.197,11.159 2.704,10.71 2.46,10.125C2.347,9.857 2.288,9.558 2.293,9.245C2.313,8.066 3.279,7.115 4.452,7.121Z" style="fill:rgb(253,215,189);fill-rule:nonzero;"/>
        <path d="M35.218,23.516L27.08,23.573L22.248,23.549C21.691,23.546 21.248,23.09 21.257,22.531L21.491,8.218C21.501,7.658 21.96,7.207 22.517,7.21L27.255,7.234L34.263,7.308C37.356,12.073 37.824,18.245 35.221,23.51C35.22,23.512 35.219,23.515 35.218,23.516Z" style="fill:rgb(135,219,255);fill-rule:nonzero;"/>
        <path d="M22.518,7.211L27.255,7.234L27.08,23.574L22.248,23.55C21.692,23.547 21.248,23.091 21.257,22.531L21.492,8.219C21.501,7.659 21.96,7.208 22.518,7.211Z" style="fill:rgb(111,199,255);fill-rule:nonzero;"/>
        <path d="M1.017,18.629L4.53,18.978C5.028,19.028 5.41,19.437 5.428,19.939L2.503,19.893C2.504,19.882 2.498,19.869 2.484,19.866C2.228,19.808 1.989,19.703 1.779,19.56C1.443,19.332 1.176,19.008 1.017,18.629Z" style="fill:rgb(250,197,170);fill-rule:nonzero;"/>
        <path d="M1.741,14.363L5.177,14.706C5.675,14.755 6.058,15.164 6.075,15.666L3.15,15.621L3.035,15.603C3.034,15.58 3.015,15.56 2.992,15.56C2.829,15.499 2.675,15.419 2.533,15.323C2.185,15.087 1.907,14.752 1.741,14.363Z" style="fill:rgb(250,197,170);fill-rule:nonzero;"/>
        <path d="M2.461,10.125L5.487,10.426C5.984,10.476 6.367,10.884 6.385,11.387L3.851,11.348C3.847,11.334 3.833,11.324 3.815,11.326C3.197,11.159 2.705,10.71 2.461,10.125Z" style="fill:rgb(250,197,170);fill-rule:nonzero;"/>
    </g>
</svg>
