<svg clip-rule="evenodd" fill-rule="evenodd" stroke-linejoin="round" stroke-miterlimit="2" viewBox="0 0 36 36" xmlns="http://www.w3.org/2000/svg"><g fill-rule="nonzero"><path d="m31.209 27.765-11.23.079c-.8.006-1.569-.29-2.155-.83-.588-.54-1.358-.84-2.16-.834l-1.503.011-.084-12.559 5.565-5.315c.434-.414.815-.872 1.14-1.364.84-1.273 1.302-2.772 1.309-4.316.002-.38.117-.734.313-1.031.334-.506.905-.842 1.552-.847.872-.007 1.623.598 1.806 1.452l.327 1.522c.372 1.742.353 3.55-.06 5.292l-.402 1.702 7.464-.044c1.193-.009 2.152.973 2.113 2.179-.036 1.162-1.018 2.081-2.176 2.089-.013 0-.021.01-.023.02-.001.012.005.024.019.027.257.055.497.157.709.298.339.224.609.544.772.922.113.26.174.548.173.852-.003.585-.24 1.117-.621 1.505-.601.611-1.344.64-1.488.643-.025.001-.045.021-.045.047 0 0 0 .001.001.002 0 .023.02.042.043.042.164.059.318.137.462.232.351.232.633.563.803.95.115.262.179.551.177.852-.005 1.178-.96 2.14-2.133 2.148-.029.001-.059.001-.087.001-.018.002-.031.014-.032.029-.001.003 0 .008.002.011.004.013.018.023.036.022.62.159 1.118.601 1.369 1.184.116.267.179.564.177.877-.005 1.18-.96 2.142-2.133 2.15z" fill="#fdd7bd"/><path d="m.249 11.74 8.137-.154 4.832-.034c.556-.004 1.005.446 1.003 1.006l-.063 14.314c-.003.561-.456 1.017-1.014 1.021l-4.737.033-7.009.01c-3.15-4.728-3.691-10.893-1.152-16.19.001-.002.002-.004.003-.006z" fill="#87dbff"/><path d="m13.144 27.892-4.737.034-.021-16.34 4.832-.035c.556-.004 1.006.447 1.003 1.007l-.063 14.314c-.003.56-.456 1.016-1.014 1.02z" fill="#6fc7ff"/><g fill="#fac5aa"><path d="m34.506 16.218-3.517-.307c-.499-.044-.886-.448-.909-.95l2.925.01c-.001.012.005.024.019.027.257.055.497.158.709.298.339.224.61.544.773.922z"/><path d="m33.833 20.49-3.44-.301c-.499-.044-.886-.448-.909-.95l2.925.011.116.016c0 .023.02.043.043.043.164.058.319.137.462.231.351.232.633.563.803.95z"/><path d="m33.164 24.738-3.029-.265c-.498-.044-.886-.448-.91-.95l2.535.009c.004.013.018.023.036.021.62.16 1.117.602 1.368 1.185z"/></g></g></svg>